<svg width="40" height="40" viewBox="0 0 40 40" fill="none" xmlns="http://www.w3.org/2000/svg">
<path fill-rule="evenodd" clip-rule="evenodd" d="M20 40C31.0457 40 40 31.0457 40 20C40 8.9543 31.0457 0 20 0C8.9543 0 0 8.9543 0 20C0 31.0457 8.9543 40 20 40ZM23 10H26.5C26.7761 10 27 10.2239 27 10.5V13.5C27 13.7761 26.7761 14 26.5 14H23H19H15V10H19H23ZM15 14V17H12V14H15ZM19 18H15V22H19H23H24.5C24.7761 22 25 22.2239 25 22.5V23H28V22V19C28 18.4477 27.5523 18 27 18H23H19ZM15 23H12V26H15V29.5C15 29.7761 15.2239 30 15.5 30H19H23V26H19H15V23Z" fill="#030712"/>
</svg>
